<svg width="21" height="21" viewBox="0 0 21 21" fill="none" xmlns="http://www.w3.org/2000/svg">
<path d="M7.70949 1.75L4.54199 4.92625" stroke="#85858B" stroke-width="1.3" stroke-miterlimit="10" stroke-linecap="round" stroke-linejoin="round"/>
<path d="M13.292 1.75L16.4595 4.92625" stroke="#85858B" stroke-width="1.3" stroke-miterlimit="10" stroke-linecap="round" stroke-linejoin="round"/>
<path d="M1.75 6.86719C1.75 5.24844 2.61625 5.11719 3.6925 5.11719H17.3075C18.3838 5.11719 19.25 5.24844 19.25 6.86719C19.25 8.74844 18.3838 8.61719 17.3075 8.61719H3.6925C2.61625 8.61719 1.75 8.74844 1.75 6.86719Z" stroke="#85858B" stroke-width="1.3"/>
<path d="M8.54004 12.25V15.3562" stroke="#85858B" stroke-width="1.3" stroke-linecap="round"/>
<path d="M12.5654 12.25V15.3562" stroke="#85858B" stroke-width="1.3" stroke-linecap="round"/>
<path d="M3.0625 8.75L4.29625 16.31C4.57625 18.0075 5.25 19.25 7.7525 19.25H13.0288C15.75 19.25 16.1525 18.06 16.4675 16.415L17.9375 8.75" stroke="#85858B" stroke-width="1.3" stroke-linecap="round"/>
</svg>
