<svg width="17" height="15" viewBox="0 0 17 15" fill="none" xmlns="http://www.w3.org/2000/svg">
<path d="M12.0332 0.650391C14.2295 0.650391 16.0165 2.43921 16.0166 4.6582C16.0166 7.35865 14.7699 9.52353 13.1992 11.1328C11.6208 12.75 9.75463 13.7629 8.63965 14.1436L8.63379 14.1455C8.58333 14.1633 8.47404 14.1836 8.33301 14.1836C8.19234 14.1836 8.08372 14.1633 8.0332 14.1455L8.02637 14.1436L7.80859 14.0645C6.67905 13.6335 4.94647 12.6489 3.4668 11.1328C1.89616 9.52353 0.650391 7.35863 0.650391 4.6582C0.65046 2.43921 2.43752 0.650391 4.63379 0.650391C5.9348 0.650537 7.08664 1.27795 7.81152 2.25391C7.93408 2.41894 8.12746 2.5165 8.33301 2.5166C8.53868 2.5166 8.73284 2.41903 8.85547 2.25391C9.58002 1.27849 10.7398 0.650433 12.0332 0.650391Z" stroke="#6C6C6C" stroke-width="1.3" stroke-linecap="round" stroke-linejoin="round"/>
</svg>
