<svg width="21" height="21" viewBox="0 0 21 21" fill="none" xmlns="http://www.w3.org/2000/svg">
<path d="M7.34661 18.9553H3.98382C2.745 18.9553 1.74127 17.9516 1.74127 16.7127V10.1159C1.74203 9.63537 1.84547 9.1605 2.04466 8.72315C2.24386 8.2858 2.53421 7.89606 2.89627 7.58005L8.95748 2.30077C9.36563 1.94571 9.88837 1.75015 10.4293 1.75015C10.9703 1.75015 11.4931 1.94571 11.9012 2.30077L17.9624 7.58107C18.3243 7.89697 18.6146 8.28654 18.8138 8.72371C19.013 9.16087 19.1165 9.63554 19.1174 10.1159V16.7127C19.1174 17.3073 18.8813 17.8776 18.461 18.2981C18.0406 18.7186 17.4705 18.955 16.8759 18.9553H13.7921V12.2287C13.7921 11.3006 13.0399 10.5473 12.1107 10.5473H9.02903C8.09992 10.5473 7.34763 11.3006 7.34763 12.2287L7.34661 18.9553ZM7.34661 18.9553H13.7932" stroke="#292928" stroke-width="1.3" stroke-linejoin="round"/>
</svg>
