<svg width="24" height="24" viewBox="0 0 24 24" fill="none" xmlns="http://www.w3.org/2000/svg">
<g clip-path="url(#clip0_4001_367)">
<path fill-rule="evenodd" clip-rule="evenodd" d="M24 12C24 5.37238 18.6276 0 12 0C5.37238 0 0 5.37238 0 12C0 18.6276 5.37238 24 12 24C18.6276 24 24 18.6276 24 12Z" fill="url(#paint0_linear_4001_367)"/>
<path fill-rule="evenodd" clip-rule="evenodd" d="M5.1653 11.2962L12.9632 8.05803C13.733 7.72062 16.3436 6.64123 16.3436 6.64123C16.3436 6.64123 17.5485 6.16896 17.4483 7.31605C17.4147 7.78832 17.1471 9.44099 16.8794 11.2285L16.043 16.5239C16.043 16.5239 15.9758 17.2997 15.407 17.4346C14.8381 17.5695 13.9009 16.9623 13.7335 16.8275C13.5997 16.7265 11.2231 15.2087 10.353 14.4667C10.1185 14.2641 9.85084 13.8596 10.3866 13.3873C11.5915 12.274 13.0309 10.8911 13.9009 10.0143C14.3024 9.60969 14.7043 8.66516 13.0309 9.8117L8.31175 13.016C8.31175 13.016 7.77651 13.3534 6.77211 13.0499C5.76826 12.7463 4.59701 12.3417 4.59701 12.3417C4.59701 12.3417 3.7936 11.8356 5.16584 11.2962H5.1653Z" fill="white"/>
</g>
<defs>
<linearGradient id="paint0_linear_4001_367" x1="55.3305" y1="13.2311" x2="33.6793" y2="61.3445" gradientUnits="userSpaceOnUse">
<stop stop-color="#37AEE2"/>
<stop offset="1" stop-color="#1E96C8"/>
</linearGradient>
<clipPath id="clip0_4001_367">
<rect width="24" height="24" fill="white"/>
</clipPath>
</defs>
</svg>
